<svg width="144" height="51" viewBox="0 0 144 51" fill="none" xmlns="http://www.w3.org/2000/svg">
<path fill-rule="evenodd" clip-rule="evenodd" d="M124.756 8.24314C119.259 8.60605 112.514 10.6719 105.831 14.3621C99.1481 18.0523 93.807 22.66 90.5714 27.1194C87.327 31.591 86.2356 35.8573 87.9201 38.9078C89.6045 41.9582 93.7965 43.3072 99.3091 42.9433C104.807 42.5804 111.551 40.5145 118.234 36.8243C124.917 33.1342 130.258 28.5264 133.494 24.067C136.738 19.5955 137.83 15.3291 136.145 12.2787C134.461 9.22821 130.269 7.87924 124.756 8.24314ZM136.295 12.1961C132.824 5.91067 119.148 6.81346 105.748 14.2125C92.3488 21.6116 84.2998 32.705 87.7705 38.9904C91.2411 45.2758 104.917 44.373 118.317 36.9739C131.717 29.5749 139.766 18.4815 136.295 12.1961Z" fill="#F8F8F8" fill-opacity="0.63"/>
<path d="M111.736 12.3467C111.736 13.3936 110.888 14.2422 109.841 14.2422C108.794 14.2422 107.945 13.3936 107.945 12.3467C107.945 11.2998 108.794 10.4512 109.841 10.4512C110.888 10.4512 111.736 11.2998 111.736 12.3467Z" fill="#F8F8F8"/>
<path d="M105.473 41.8967C105.473 42.351 105.105 42.7192 104.651 42.7192C104.196 42.7192 103.828 42.351 103.828 41.8967C103.828 41.4425 104.196 41.0742 104.651 41.0742C105.105 41.0742 105.473 41.4425 105.473 41.8967Z" fill="#F8F8F8"/>
<path d="M7.74122 19.8866C9.50137 19.8866 10.2362 19.7499 13.1925 17.1524C13.3634 17.0157 13.5514 16.9131 13.7736 16.9131C14.2179 16.9131 14.5938 17.2891 14.5938 17.7334C14.5938 17.9897 14.4571 18.229 14.2691 18.3828C11.4153 20.9119 9.92859 21.6296 7.74122 21.6296C5.40006 21.6296 4.10131 20.929 1.17913 18.3828C0.99115 18.229 0.85444 17.9897 0.85444 17.7334C0.85444 17.2891 1.23039 16.9131 1.6747 16.9131C1.89686 16.9131 2.08483 17.0157 2.25572 17.1524C5.1779 19.7157 5.96399 19.8695 7.74122 19.8866ZM6.68172 23.5436C6.68172 22.9626 7.16021 22.4841 7.74122 22.4841C8.32224 22.4841 8.80073 22.9626 8.80073 23.5436C8.80073 24.1246 8.32224 24.6031 7.74122 24.6031C7.16021 24.6031 6.68172 24.1246 6.68172 23.5436ZM29.7842 20.6385C29.7842 22.3645 28.605 24.3638 26.6398 24.3638H18.8473C16.9847 24.2613 15.8739 22.3303 15.8739 20.6385C15.8739 18.9125 17.053 16.9131 19.0182 16.9131H26.8107C28.6734 17.0157 29.7842 18.9467 29.7842 20.6385ZM26.281 22.7233C27.8531 22.7233 28.1949 21.4588 28.1949 20.6385C28.1949 19.8182 27.8531 18.5537 26.281 18.5537H19.3771C17.8049 18.5537 17.4631 19.8182 17.4631 20.6385C17.4631 21.4588 17.8049 22.7233 19.3771 22.7233H26.281ZM33.1346 20.6385C33.1346 21.4588 33.4764 22.7233 35.0486 22.7233H41.8499C43.4221 22.7233 43.7639 21.4588 43.7639 20.6385V17.7505C43.7639 17.3062 44.1398 16.9302 44.5841 16.9302C45.0284 16.9302 45.4044 17.3062 45.4044 17.7505V20.6385C45.4044 22.3645 44.2253 24.3638 42.2601 24.3638H34.4676C32.6049 24.2613 31.4941 22.3303 31.4941 20.6385V17.7505C31.4941 17.3062 31.8701 16.9302 32.3144 16.9302C32.7587 16.9302 33.1346 17.3062 33.1346 17.7505V20.6385ZM59.6917 16.9131C60.136 16.9131 60.512 17.2891 60.512 17.7334C60.512 18.1777 60.136 18.5537 59.6917 18.5537H54.6334V23.5436C54.6334 23.9879 54.2575 24.3638 53.8132 24.3638C53.3688 24.3638 52.9929 23.9879 52.9929 23.5436V18.5537H47.8662C47.4561 18.5195 47.1143 18.1606 47.1143 17.7334C47.1143 17.2891 47.4903 16.9131 47.9346 16.9131H59.6917ZM75.5978 23.5436C75.5978 23.9879 75.2218 24.3638 74.7775 24.3638C74.3332 24.3638 73.9572 23.9879 73.9572 23.5436V21.4588H63.8578V23.5436C63.8578 23.9879 63.4818 24.3638 63.0375 24.3638C62.5932 24.3638 62.2172 23.9879 62.2172 23.5436V17.7334C62.2172 17.2891 62.5932 16.9131 63.0375 16.9131C63.4818 16.9131 63.8578 17.2891 63.8578 17.7334V19.8182H73.9572V17.7334C73.9572 17.2891 74.3332 16.9131 74.7775 16.9131C75.2218 16.9131 75.5978 17.2891 75.5978 17.7334V23.5436ZM91.2137 20.6385C91.2137 22.3645 90.0346 24.3638 88.0694 24.3638H80.2769C78.4142 24.2613 77.3034 22.3303 77.3034 20.6385C77.3034 18.9125 78.4826 16.9131 80.4478 16.9131H88.2403C90.1029 17.0157 91.2137 18.9467 91.2137 20.6385ZM87.7105 22.7233C89.2827 22.7233 89.6245 21.4588 89.6245 20.6385C89.6245 19.8182 89.2827 18.5537 87.7105 18.5537H80.8066C79.2345 18.5537 78.8927 19.8182 78.8927 20.6385C78.8927 21.4588 79.2345 22.7233 80.8066 22.7233H87.7105ZM92.9237 17.7334C92.9237 17.2891 93.2996 16.9131 93.7439 16.9131H103.98C105.245 16.9131 106.287 17.9214 106.287 19.1859C106.287 20.4505 105.245 21.4588 103.98 21.4588H95.0939C94.8034 21.51 94.5642 21.7493 94.5642 22.091V23.5436C94.5642 23.9879 94.1711 24.3638 93.7439 24.3638C93.2996 24.3638 92.9237 23.9879 92.9237 23.5436V21.9031C92.9237 20.7581 93.8123 19.8182 94.9743 19.8182H104.048C104.39 19.8182 104.698 19.5448 104.698 19.1859C104.698 18.8442 104.39 18.5537 104.048 18.5537H93.7439C93.2996 18.5537 92.9237 18.1777 92.9237 17.7334ZM109.634 23.5436C109.634 23.9879 109.258 24.3638 108.813 24.3638C108.369 24.3638 107.993 23.9879 107.993 23.5436V17.7334C107.993 17.2891 108.369 16.9131 108.813 16.9131C109.258 16.9131 109.634 17.2891 109.634 17.7334V23.5436ZM116.816 18.7245L112.8 24.0562C112.646 24.2442 112.407 24.3638 112.168 24.3638C111.723 24.3638 111.348 23.9879 111.348 23.5436C111.348 23.3556 111.399 23.1847 111.518 23.048L115.671 17.46C116.064 16.9302 116.73 16.5714 117.465 16.5714C118.149 16.5714 118.798 16.879 119.191 17.4087L123.344 22.9626C123.481 23.1164 123.583 23.3214 123.583 23.5436C123.583 23.9879 123.207 24.3638 122.763 24.3638C122.507 24.3638 122.267 24.2442 122.113 24.0392L118.132 18.7245C117.978 18.5366 117.722 18.2631 117.465 18.2631C117.209 18.2631 116.953 18.5537 116.816 18.7245Z" fill="white"/>
<path d="M99.3897 30.5049C99.5052 30.5049 99.6034 30.555 99.6842 30.6552C99.7651 30.7555 99.8055 30.8772 99.8055 31.0204C99.8055 31.1636 99.7651 31.2853 99.6842 31.3855C99.6034 31.4857 99.5052 31.5358 99.3897 31.5358H93.4471C93.3316 31.5358 93.2334 31.4857 93.1525 31.3855C93.0717 31.2853 93.0312 31.1636 93.0312 31.0204V29.9894C93.0312 29.8104 93.0572 29.6422 93.1092 29.4846C93.1612 29.32 93.2334 29.1804 93.3258 29.0658C93.424 28.9441 93.5337 28.851 93.655 28.7866C93.782 28.715 93.9206 28.6792 94.0708 28.6792H98.6707C98.7573 28.6792 98.8324 28.6434 98.8959 28.5718C98.9652 28.493 98.9999 28.3964 98.9999 28.2818C98.9999 28.1744 98.9652 28.0814 98.8959 28.0026C98.8324 27.9239 98.7573 27.8845 98.6707 27.8845H93.4471C93.3316 27.8845 93.2334 27.8344 93.1525 27.7341C93.0717 27.6339 93.0312 27.5122 93.0312 27.369C93.0312 27.2258 93.0717 27.1041 93.1525 27.0039C93.2334 26.9036 93.3316 26.8535 93.4471 26.8535H98.6361C98.7978 26.8535 98.9479 26.8929 99.0865 26.9716C99.2309 27.0432 99.3551 27.1435 99.459 27.2723C99.5687 27.4012 99.6525 27.5516 99.7102 27.7234C99.7738 27.8952 99.8055 28.0814 99.8055 28.2818C99.8055 28.4823 99.7738 28.6685 99.7102 28.8403C99.6525 29.0121 99.5687 29.1625 99.459 29.2913C99.3551 29.4202 99.2309 29.524 99.0865 29.6028C98.9479 29.6744 98.7978 29.7102 98.6361 29.7102H94.1228C94.0477 29.7245 93.9842 29.7674 93.9322 29.839C93.8802 29.9106 93.8542 30.0001 93.8542 30.1075V30.5049H99.3897Z" fill="white"/>
<path d="M105.717 30.5049C105.914 30.5049 106.075 30.4619 106.202 30.376C106.33 30.2829 106.428 30.172 106.497 30.0431C106.572 29.9142 106.621 29.7746 106.644 29.6243C106.673 29.4667 106.688 29.3236 106.688 29.1947C106.688 29.0658 106.673 28.9262 106.644 28.7758C106.621 28.6183 106.572 28.4751 106.497 28.3463C106.428 28.2174 106.33 28.11 106.202 28.0241C106.075 27.931 105.914 27.8845 105.717 27.8845H102.235C102.033 27.8845 101.868 27.931 101.741 28.0241C101.62 28.11 101.522 28.2174 101.447 28.3463C101.377 28.4751 101.328 28.6183 101.299 28.7758C101.276 28.9262 101.265 29.0658 101.265 29.1947C101.265 29.3236 101.276 29.4667 101.299 29.6243C101.328 29.7746 101.377 29.9142 101.447 30.0431C101.522 30.172 101.62 30.2829 101.741 30.376C101.868 30.4619 102.033 30.5049 102.235 30.5049H105.717ZM107.502 29.1947C107.502 29.4667 107.464 29.7424 107.389 30.0216C107.32 30.2937 107.216 30.5443 107.077 30.7734C106.939 30.9953 106.771 31.1779 106.575 31.3211C106.379 31.4643 106.156 31.5358 105.908 31.5358H101.958C101.721 31.5358 101.51 31.4643 101.325 31.3211C101.141 31.1779 100.982 30.9953 100.849 30.7734C100.722 30.5443 100.624 30.2901 100.554 30.0109C100.485 29.7316 100.45 29.4596 100.45 29.1947C100.45 28.9226 100.485 28.6506 100.554 28.3785C100.629 28.0993 100.736 27.8487 100.875 27.6267C101.014 27.3976 101.181 27.2115 101.377 27.0683C101.574 26.9251 101.796 26.8535 102.044 26.8535H105.995C106.231 26.8678 106.442 26.9502 106.627 27.1005C106.812 27.2437 106.968 27.4263 107.095 27.6482C107.228 27.8702 107.329 28.1172 107.398 28.3892C107.467 28.6613 107.502 28.9298 107.502 29.1947Z" fill="white"/>
<path d="M114.727 30.5049C114.843 30.5049 114.941 30.555 115.022 30.6552C115.103 30.7555 115.143 30.8772 115.143 31.0204C115.143 31.1636 115.103 31.2853 115.022 31.3855C114.941 31.4857 114.843 31.5358 114.727 31.5358H108.785C108.669 31.5358 108.571 31.4857 108.49 31.3855C108.409 31.2853 108.369 31.1636 108.369 31.0204V29.9894C108.369 29.8104 108.395 29.6422 108.447 29.4846C108.499 29.32 108.571 29.1804 108.663 29.0658C108.761 28.9441 108.871 28.851 108.992 28.7866C109.119 28.715 109.258 28.6792 109.408 28.6792H114.008C114.095 28.6792 114.17 28.6434 114.233 28.5718C114.303 28.493 114.337 28.3964 114.337 28.2818C114.337 28.1744 114.303 28.0814 114.233 28.0026C114.17 27.9239 114.095 27.8845 114.008 27.8845H108.785C108.669 27.8845 108.571 27.8344 108.49 27.7341C108.409 27.6339 108.369 27.5122 108.369 27.369C108.369 27.2258 108.409 27.1041 108.49 27.0039C108.571 26.9036 108.669 26.8535 108.785 26.8535H113.974C114.135 26.8535 114.285 26.8929 114.424 26.9716C114.568 27.0432 114.693 27.1435 114.796 27.2723C114.906 27.4012 114.99 27.5516 115.048 27.7234C115.111 27.8952 115.143 28.0814 115.143 28.2818C115.143 28.4823 115.111 28.6685 115.048 28.8403C114.99 29.0121 114.906 29.1625 114.796 29.2913C114.693 29.4202 114.568 29.524 114.424 29.6028C114.285 29.6744 114.135 29.7102 113.974 29.7102H109.46C109.385 29.7245 109.322 29.7674 109.27 29.839C109.218 29.9106 109.192 30.0001 109.192 30.1075V30.5049H114.727Z" fill="white"/>
<path d="M116.995 29.1947C116.995 29.0515 117.036 28.9298 117.117 28.8295C117.198 28.7293 117.296 28.6792 117.411 28.6792H121.717C121.803 28.6792 121.878 28.6398 121.942 28.5611C122.005 28.4823 122.037 28.3857 122.037 28.2711C122.037 28.1637 122.005 28.0742 121.942 28.0026C121.878 27.9239 121.803 27.8845 121.717 27.8845H116.424C116.308 27.8845 116.21 27.8344 116.129 27.7341C116.048 27.6339 116.008 27.5122 116.008 27.369C116.008 27.2258 116.048 27.1041 116.129 27.0039C116.21 26.9036 116.308 26.8535 116.424 26.8535H121.673C121.835 26.8535 121.985 26.8893 122.124 26.9609C122.268 27.0325 122.392 27.1327 122.496 27.2616C122.6 27.3905 122.681 27.5408 122.739 27.7127C122.802 27.8845 122.834 28.0706 122.834 28.2711C122.834 28.4501 122.808 28.6183 122.756 28.7758C122.71 28.9334 122.644 29.073 122.557 29.1947C122.742 29.4667 122.834 29.7746 122.834 30.1183C122.834 30.3187 122.802 30.5049 122.739 30.6767C122.681 30.8485 122.6 30.9989 122.496 31.1278C122.392 31.2566 122.268 31.3569 122.124 31.4285C121.985 31.5 121.835 31.5358 121.673 31.5358H116.424C116.308 31.5358 116.21 31.4857 116.129 31.3855C116.048 31.2853 116.008 31.1636 116.008 31.0204C116.008 30.8772 116.048 30.7555 116.129 30.6552C116.21 30.555 116.308 30.5049 116.424 30.5049H121.717C121.803 30.5049 121.878 30.4691 121.942 30.3975C122.005 30.3187 122.037 30.2257 122.037 30.1183C122.037 30.0037 122.005 29.9071 121.942 29.8283C121.878 29.7495 121.803 29.7102 121.717 29.7102H117.411C117.296 29.7102 117.198 29.66 117.117 29.5598C117.036 29.4596 116.995 29.3379 116.995 29.1947Z" fill="white"/>
</svg>
